<svg width="21" height="22" viewBox="0 0 21 22" fill="none" xmlns="http://www.w3.org/2000/svg">
<path d="M9.58997 11C12.3514 11 14.59 8.76142 14.59 6C14.59 3.23858 12.3514 1 9.58997 1C6.82854 1 4.58997 3.23858 4.58997 6C4.58997 8.76142 6.82854 11 9.58997 11Z" stroke="#A4A9AC" stroke-width="1.5" stroke-linecap="round" stroke-linejoin="round"/>
<path d="M1 21C1 17.13 4.85 14 9.59 14C10.55 14 11.48 14.13 12.35 14.37" stroke="#A4A9AC" stroke-width="1.5" stroke-linecap="round" stroke-linejoin="round"/>
<path d="M19.59 17C19.59 17.32 19.55 17.63 19.47 17.93C19.38 18.33 19.22 18.72 19.01 19.06C18.32 20.22 17.05 21 15.59 21C14.56 21 13.63 20.61 12.93 19.97C12.63 19.71 12.37 19.4 12.17 19.06C11.8 18.46 11.59 17.75 11.59 17C11.59 15.92 12.02 14.93 12.72 14.21C13.45 13.46 14.47 13 15.59 13C16.77 13 17.84 13.51 18.56 14.33C19.2 15.04 19.59 15.98 19.59 17Z" stroke="#A4A9AC" stroke-width="1.5" stroke-miterlimit="10" stroke-linecap="round" stroke-linejoin="round"/>
<path d="M17.08 16.98H14.1" stroke="#A4A9AC" stroke-width="1.5" stroke-miterlimit="10" stroke-linecap="round" stroke-linejoin="round"/>
<path d="M15.59 15.52V18.51" stroke="#A4A9AC" stroke-width="1.5" stroke-miterlimit="10" stroke-linecap="round" stroke-linejoin="round"/>
</svg>
