<svg width="22" height="22" viewBox="0 0 22 22" fill="none" xmlns="http://www.w3.org/2000/svg">
<path d="M8 9C9.10457 9 10 8.10457 10 7C10 5.89543 9.10457 5 8 5C6.89543 5 6 5.89543 6 7C6 8.10457 6.89543 9 8 9Z" stroke="#A4A9AC" stroke-width="1.5" stroke-linecap="round" stroke-linejoin="round"/>
<path d="M12 1H8C3 1 1 3 1 8V14C1 19 3 21 8 21H14C19 21 21 19 21 14V9" stroke="#A4A9AC" stroke-width="1.5" stroke-linecap="round" stroke-linejoin="round"/>
<path d="M14.75 4H20.25" stroke="#A4A9AC" stroke-width="1.5" stroke-linecap="round"/>
<path d="M17.5 6.75V1.25" stroke="#A4A9AC" stroke-width="1.5" stroke-linecap="round"/>
<path d="M1.66998 17.95L6.59998 14.64C7.38998 14.11 8.52998 14.17 9.23998 14.78L9.56998 15.07C10.35 15.74 11.61 15.74 12.39 15.07L16.55 11.5C17.33 10.83 18.59 10.83 19.37 11.5L21 12.9" stroke="#A4A9AC" stroke-width="1.5" stroke-linecap="round" stroke-linejoin="round"/>
</svg>
