<svg width="22" height="22" viewBox="0 0 22 22" fill="none" xmlns="http://www.w3.org/2000/svg">
<path d="M1.09935 3.595C1.89935 0.135 7.10935 0.135 7.89935 3.595C8.36935 5.625 7.07935 7.345 5.95935 8.415C5.13935 9.195 3.84935 9.185 3.02935 8.415C1.91935 7.345 0.629352 5.625 1.09935 3.595Z" stroke="#A4A9AC" stroke-width="1.5"/>
<path d="M14.0994 15.595C14.8994 12.135 20.1394 12.135 20.9394 15.595C21.4094 17.625 20.1194 19.345 18.9894 20.415C18.1694 21.195 16.8694 21.185 16.0494 20.415C14.9194 19.345 13.6294 17.625 14.0994 15.595Z" stroke="#A4A9AC" stroke-width="1.5"/>
<path d="M11.0294 3.995H13.7094C15.5594 3.995 16.4194 6.285 15.0294 7.505L7.03936 14.495C5.64936 15.705 6.50936 17.995 8.34936 17.995H11.0294" stroke="#A4A9AC" stroke-width="1.5" stroke-linecap="round" stroke-linejoin="round"/>
<path d="M4.51557 4.495H4.52713" stroke="#A4A9AC" stroke-width="2" stroke-linecap="round" stroke-linejoin="round"/>
<path d="M17.5156 16.495H17.5271" stroke="#A4A9AC" stroke-width="2" stroke-linecap="round" stroke-linejoin="round"/>
</svg>
