<svg width="60" height="73" viewBox="0 0 60 73" fill="none" xmlns="http://www.w3.org/2000/svg">
<circle cx="29.5" cy="29.5" r="12.5" fill="#B31717"/>
<path d="M29.9443 73C19.7774 65.4329 12.2449 58.1626 7.34694 51.189C2.44898 44.2154 0 37.3902 0 30.7134C0 25.5945 0.90909 21.1433 2.72727 17.3598C4.54545 13.5762 6.86456 10.4047 9.6846 7.84527C12.5046 5.28582 15.7143 3.33841 19.3135 2.00305C22.9128 0.667683 26.4564 0 29.9443 0C33.4323 0 36.9573 0.667683 40.5195 2.00305C44.0816 3.33841 47.2913 5.28582 50.1484 7.84527C53.0056 10.4047 55.3618 13.5762 57.2171 17.3598C59.0724 21.1433 60 25.5945 60 30.7134C60 37.3902 57.5325 44.2154 52.5974 51.189C47.6623 58.1626 40.1113 65.4329 29.9443 73ZM29.9443 37.6128C32.0965 37.6128 33.9332 36.8709 35.4545 35.3872C36.9759 33.9035 37.7366 32.0859 37.7366 29.9345C37.7366 27.783 36.9759 25.9654 35.4545 24.4817C33.9332 22.998 32.0965 22.2561 29.9443 22.2561C27.8664 22.2561 26.0668 22.998 24.5455 24.4817C23.0241 25.9654 22.2634 27.783 22.2634 29.9345C22.2634 32.0859 23.0241 33.9035 24.5455 35.3872C26.0668 36.8709 27.8664 37.6128 29.9443 37.6128Z" fill="#E53935"/>
</svg>
