<svg width="22" height="22" viewBox="0 0 22 22" fill="none" xmlns="http://www.w3.org/2000/svg">
<path d="M18.7926 13.9225C16.7326 15.9725 13.7826 16.6025 11.1926 15.7925L6.48259 20.4925C6.14259 20.8425 5.47259 21.0525 4.99259 20.9825L2.81259 20.6825C2.09259 20.5825 1.42259 19.9025 1.31259 19.1825L1.01259 17.0025C0.942588 16.5225 1.17259 15.8525 1.50259 15.5125L6.20259 10.8125C5.40259 8.2125 6.02259 5.2625 8.08259 3.2125C11.0326 0.2625 15.8226 0.2625 18.7826 3.2125C21.7426 6.1625 21.7426 10.9725 18.7926 13.9225Z" stroke="#A4A9AC" stroke-width="1.5" stroke-miterlimit="10" stroke-linecap="round" stroke-linejoin="round"/>
<path d="M5.89258 16.4825L8.19258 18.7825" stroke="#A4A9AC" stroke-width="1.5" stroke-miterlimit="10" stroke-linecap="round" stroke-linejoin="round"/>
<path d="M13.5026 9.99249C14.331 9.99249 15.0026 9.32092 15.0026 8.49249C15.0026 7.66407 14.331 6.99249 13.5026 6.99249C12.6741 6.99249 12.0026 7.66407 12.0026 8.49249C12.0026 9.32092 12.6741 9.99249 13.5026 9.99249Z" stroke="#A4A9AC" stroke-width="1.5" stroke-linecap="round" stroke-linejoin="round"/>
</svg>
